P2
# Output after removing 50 vertical and 50 seams from Buchtel.pgm
115 62
255
29 127 73 162 180 214 34 5 55 29 22 143 45 103 2 8 1 13 5 0 6 0 10 2 14 0 5 3 0 9 19 7 7 4 0 0 0 23 0 14 2 20 0 1 0 0 8 0 14 4 0 6 16 2 15 8 6 0 22 0 9 0 8 13 0 16 6 0 11 1 0 6 7 0 15 15 4 0 6 6 6 3 3 0 0 7 0 8 6 15 0 7 10 0 0 10 0 25 0 2 22 18 6 0 1 0 2 4 1 10 0 19 1 5 0 
9 150 50 155 215 255 95 29 34 51 16 164 27 175 179 212 194 148 111 174 248 243 197 212 31 153 220 215 121 209 236 232 151 123 92 205 187 114 107 121 136 82 109 138 104 163 169 197 243 254 201 171 124 99 184 166 237 185 131 198 126 229 198 193 109 145 241 230 66 176 147 226 216 239 146 252 167 165 219 140 230 238 105 99 157 222 30 111 168 107 106 151 140 151 154 173 165 142 195 115 233 233 225 127 104 193 159 221 255 148 131 12 118 82 44 
119 73 169 210 81 72 141 45 212 157 134 208 83 99 82 187 251 143 67 116 242 242 103 223 77 231 152 92 81 108 255 171 119 227 85 233 189 114 90 75 111 93 130 98 97 154 204 218 236 236 204 203 198 196 159 229 163 113 117 100 109 234 170 242 111 205 113 202 143 223 63 238 147 236 139 224 147 109 128 222 218 244 178 106 240 210 157 94 90 151 166 112 95 148 127 154 192 143 80 121 207 239 183 126 173 113 175 180 158 118 116 61 131 45 1 
157 19 34 135 180 163 187 90 190 205 101 211 243 234 145 185 100 241 183 198 236 171 137 168 192 246 240 167 91 236 198 239 209 196 88 79 150 105 22 111 76 150 86 76 144 136 208 178 168 195 163 151 158 233 62 84 203 80 160 90 100 177 119 170 215 173 149 178 199 131 102 226 151 128 167 140 76 236 179 121 100 250 224 222 247 195 203 215 222 78 90 116 81 123 128 86 157 154 89 75 223 237 139 158 112 121 84 123 92 218 192 78 16 72 187 
203 37 14 137 139 210 103 148 224 242 168 70 94 147 196 235 79 235 235 242 218 66 32 72 136 241 167 248 192 84 231 250 249 239 208 59 110 128 58 183 105 101 92 97 127 159 180 219 223 179 118 154 181 63 38 106 15 103 150 197 118 88 151 144 100 138 162 218 168 172 182 105 123 180 230 191 46 20 127 252 128 126 245 209 234 135 208 237 170 102 159 87 186 80 128 134 218 125 87 111 148 105 71 155 192 135 153 35 130 184 243 65 48 240 4 
111 143 56 24 184 151 104 86 42 63 146 60 67 110 151 146 85 220 243 241 97 216 155 21 82 242 135 223 245 83 189 249 193 161 231 80 170 152 59 147 197 96 148 125 113 179 194 142 151 200 132 67 41 128 92 64 135 58 129 194 140 179 144 223 124 176 207 183 225 141 220 153 153 133 222 116 59 216 193 236 230 170 155 205 177 152 200 192 168 192 108 154 234 205 224 183 250 147 99 110 227 210 98 98 227 124 252 99 123 154 192 93 50 116 0 
79 154 103 10 109 67 52 74 129 91 143 100 100 143 35 76 60 129 181 210 43 214 245 239 204 217 235 188 230 210 232 153 152 237 230 108 71 69 55 67 139 138 66 149 87 95 92 160 176 195 84 96 97 166 36 69 189 147 201 125 75 165 119 240 154 100 245 141 238 163 166 155 92 126 96 175 198 186 172 235 240 243 87 123 134 204 113 246 149 126 182 230 239 193 229 141 206 172 188 204 250 224 251 135 253 205 106 195 195 213 159 94 56 140 20 
118 97 166 84 13 7 187 192 115 33 91 206 200 88 32 57 62 137 118 127 174 238 230 245 192 210 243 237 232 171 138 105 206 241 149 124 196 87 103 131 186 135 71 89 112 166 144 101 163 219 94 148 131 23 164 156 158 121 141 168 135 87 41 155 174 238 218 232 181 230 236 157 149 145 165 204 154 134 144 197 103 200 216 99 160 33 142 244 130 198 195 231 85 128 94 199 139 202 205 230 67 211 159 206 144 247 240 255 182 222 100 20 206 233 1 
135 136 119 162 70 32 123 131 130 218 150 175 221 43 127 138 41 86 216 106 134 203 255 230 145 163 247 243 255 233 17 70 228 237 179 136 220 234 236 66 230 185 144 148 137 187 248 88 115 139 166 124 149 107 239 235 221 221 224 173 201 243 173 87 106 81 182 243 192 240 240 211 164 116 171 156 197 169 80 142 121 207 245 204 139 102 117 153 81 147 226 241 155 206 107 157 200 135 180 144 112 175 228 183 185 174 206 222 250 241 122 11 159 198 0 
217 91 85 211 83 4 168 226 235 153 164 224 205 62 109 113 61 106 232 144 185 240 226 251 171 201 245 107 227 210 78 110 224 233 255 244 233 207 147 93 119 158 201 95 171 95 49 68 87 168 136 194 255 215 255 215 246 250 244 230 194 237 126 90 164 71 48 205 215 238 222 191 196 128 201 230 191 211 208 131 239 239 214 168 59 171 87 132 44 218 192 245 243 244 199 129 105 205 126 144 206 204 196 229 136 112 172 37 50 133 29 98 192 252 1 
232 151 203 91 131 159 7 192 127 241 122 180 217 115 233 176 95 200 122 211 217 246 234 209 229 221 246 123 215 244 147 245 149 250 153 225 201 149 34 157 73 113 121 153 231 219 153 107 79 85 111 248 217 255 244 252 234 187 116 216 201 88 220 168 194 134 102 126 238 214 240 225 223 129 219 169 233 173 186 201 177 176 168 174 114 40 98 58 160 14 47 206 210 193 242 213 179 154 125 69 30 46 140 235 255 160 71 34 61 68 9 121 184 205 8 
128 83 112 149 104 210 51 71 87 149 140 235 163 221 199 208 110 177 174 86 203 212 222 170 230 254 241 179 217 240 219 236 248 158 219 90 151 223 133 61 153 95 169 226 233 242 215 118 138 112 220 123 204 196 202 210 82 67 195 185 88 174 224 226 246 219 51 226 255 168 157 160 251 205 214 255 224 134 104 167 236 204 105 223 35 120 137 97 70 124 177 62 77 137 195 229 218 151 138 53 60 35 91 135 236 177 29 68 21 51 4 84 241 228 7 
126 88 182 158 103 176 155 0 120 156 62 166 154 156 172 231 119 131 184 221 91 156 218 142 140 252 190 222 235 252 237 250 197 183 78 245 248 125 160 160 95 173 200 100 187 244 154 82 211 124 208 153 219 65 144 245 228 58 125 224 218 128 160 111 206 222 162 229 246 200 211 175 171 208 120 193 164 161 91 230 196 172 166 90 28 105 92 57 85 60 99 232 150 32 7 5 5 142 60 143 25 58 172 103 13 221 158 100 49 15 35 111 140 219 6 
162 163 186 71 211 158 104 74 14 144 146 91 164 113 154 194 243 183 195 181 120 225 115 192 172 117 228 153 196 220 241 237 241 147 183 240 247 190 224 150 142 234 152 114 198 67 87 118 106 89 76 108 172 87 74 124 90 133 107 203 237 73 109 154 231 215 173 230 204 123 246 245 239 201 169 238 147 104 196 108 80 135 240 172 49 62 73 108 97 25 95 135 115 144 157 167 147 8 115 152 215 120 10 166 182 0 19 29 43 0 3 87 228 160 2 
100 216 226 153 149 160 99 169 26 25 177 135 186 227 208 237 192 230 229 213 187 221 206 160 177 131 193 96 150 211 165 178 205 233 249 243 236 248 214 73 105 113 122 214 160 239 196 101 100 161 74 91 54 58 87 199 119 142 150 175 137 122 170 206 180 231 243 250 210 187 202 167 186 229 211 211 182 84 95 232 194 213 193 107 101 103 54 42 29 88 146 90 243 225 180 177 216 148 65 38 60 27 61 33 2 36 29 9 15 37 16 78 243 153 0 
161 144 79 147 82 104 178 148 161 33 129 138 102 168 240 194 243 189 231 206 212 166 232 140 170 176 117 130 180 146 227 195 244 227 230 227 246 218 126 97 154 111 66 204 228 211 131 100 231 199 42 96 85 206 166 112 187 229 62 91 58 128 103 122 232 215 223 245 219 226 182 114 188 180 244 142 189 87 58 246 224 203 187 82 79 58 60 66 85 146 232 66 102 72 8 58 38 31 8 9 18 28 12 33 35 3 65 204 128 251 95 22 186 197 7 
137 186 153 94 140 94 43 146 130 96 44 180 143 156 166 198 237 241 237 171 63 193 144 212 210 190 247 202 84 116 125 97 187 218 255 238 223 237 255 165 151 112 156 136 189 175 95 193 55 105 72 116 136 118 69 154 123 153 121 107 113 116 186 89 107 87 130 223 112 167 174 137 166 99 65 40 155 241 116 124 234 248 139 35 203 202 41 142 136 13 14 32 40 14 15 5 22 4 42 92 134 143 54 0 53 242 236 235 251 255 5 2 239 125 1 
162 117 79 97 169 162 147 252 235 227 202 30 181 90 239 159 204 209 236 154 158 143 117 237 176 157 199 181 154 147 159 211 218 185 201 238 232 132 144 218 180 162 208 121 130 226 213 209 230 148 46 128 147 66 148 177 136 131 100 97 145 100 93 153 86 192 184 209 164 131 155 224 243 70 122 123 211 159 169 173 213 61 151 187 48 199 80 19 5 162 146 85 200 161 232 223 87 196 191 212 87 73 9 85 226 244 228 255 225 230 8 26 161 148 8 
117 162 143 63 88 159 173 164 134 234 250 60 49 197 164 170 172 190 242 164 99 159 164 251 224 119 173 122 123 193 154 132 182 250 241 240 241 227 248 229 233 221 160 227 222 152 192 198 149 94 141 38 77 64 115 104 121 89 94 128 175 119 173 107 126 145 109 173 114 162 201 134 197 163 184 124 204 114 180 207 255 48 201 255 164 45 7 36 73 128 165 73 243 143 165 193 162 130 116 120 139 45 3 245 228 206 248 232 226 227 2 7 136 187 10 
39 165 138 142 109 47 68 97 170 245 235 228 231 8 176 154 218 242 191 246 230 237 227 163 204 133 227 250 241 148 120 32 184 242 204 245 255 244 149 224 188 215 233 136 152 154 131 179 107 115 173 132 121 59 153 167 84 75 93 64 81 102 148 107 183 128 103 69 66 214 230 192 200 206 169 75 154 122 216 103 171 190 142 81 1 9 77 181 106 191 203 185 241 150 47 93 128 121 178 173 154 48 24 192 148 214 255 239 253 240 60 10 48 61 9 
135 186 205 25 30 28 23 157 194 237 254 240 198 186 24 129 99 174 245 245 241 217 216 210 190 143 63 84 164 136 85 126 150 176 186 229 233 110 101 115 32 69 156 169 182 93 151 166 159 117 131 146 61 61 75 96 144 73 43 25 107 87 134 108 199 140 125 156 113 98 211 143 205 230 126 157 190 116 77 49 65 49 76 127 238 217 138 123 205 220 241 243 250 235 166 218 61 135 103 140 65 9 116 160 220 218 234 247 239 189 2 24 7 28 0 
43 193 206 69 49 19 73 163 224 244 231 248 230 226 19 45 189 185 134 241 246 231 99 221 182 104 8 237 178 88 125 201 213 171 53 195 255 127 27 42 53 67 178 60 92 109 97 55 101 106 133 31 90 40 122 91 86 46 64 89 127 70 83 10 208 209 154 186 131 116 199 73 194 248 49 188 244 108 150 58 80 42 212 245 252 107 129 234 235 160 223 185 200 216 236 207 48 67 85 93 40 0 195 228 221 234 224 242 233 228 4 0 19 39 0 
79 14 22 129 121 128 63 131 153 187 232 226 255 96 140 92 148 186 124 142 132 137 172 125 188 64 196 170 88 62 171 56 121 242 171 94 66 60 204 174 70 163 77 115 99 25 45 15 41 68 50 88 23 104 29 53 138 133 67 148 92 92 121 78 83 84 179 125 118 181 113 106 59 63 141 62 39 60 108 37 38 100 235 239 47 97 74 80 101 80 157 245 104 187 32 95 70 151 66 240 35 2 179 230 247 247 232 250 230 244 5 9 3 19 2 
1 54 73 0 22 76 202 150 215 132 162 83 122 175 162 157 104 218 153 76 171 234 143 66 102 85 52 68 54 67 52 70 72 87 68 106 49 161 101 125 110 139 32 44 37 55 50 59 85 78 144 57 98 34 73 20 63 44 102 238 218 86 96 95 95 52 80 110 120 186 95 137 144 119 100 75 120 162 45 101 108 45 119 170 31 17 231 237 154 107 231 166 180 148 113 145 123 141 104 227 20 0 192 198 239 220 225 246 237 247 1 3 20 26 5 
18 100 134 20 7 0 69 181 226 186 180 43 108 195 212 119 50 128 70 113 103 87 172 87 151 69 135 155 36 101 36 57 94 54 150 73 102 151 81 129 149 130 125 80 90 35 28 64 45 112 122 47 66 94 142 125 42 67 115 147 118 54 41 59 27 92 134 102 121 59 85 82 75 45 81 108 52 53 94 31 53 126 27 38 38 25 106 254 235 68 228 210 142 169 168 170 85 134 200 201 31 0 242 205 228 222 241 227 244 255 25 12 8 23 5 
12 167 96 97 88 58 47 10 41 178 175 85 139 146 119 206 44 107 55 103 68 148 108 79 94 50 151 90 106 144 79 29 171 123 117 219 188 169 213 55 114 200 228 83 33 146 71 74 103 12 60 63 48 20 30 69 103 83 42 90 143 46 147 137 191 162 80 131 101 22 124 155 132 172 49 24 40 107 112 29 24 162 95 54 91 104 58 69 139 79 255 247 232 237 26 105 173 63 201 176 12 11 225 232 228 231 231 255 253 242 190 26 14 5 24 
1 110 161 86 143 171 93 145 85 3 17 51 140 56 39 77 117 43 111 51 112 53 140 114 136 129 95 110 50 86 52 126 64 72 13 53 30 62 132 157 50 107 44 44 81 38 55 55 130 32 50 92 96 52 43 93 121 140 133 148 128 116 185 224 94 85 77 102 5 50 95 41 50 65 143 130 33 6 191 106 203 111 58 108 20 132 98 149 97 104 86 41 31 39 89 76 41 112 46 183 5 17 207 86 119 131 122 217 232 233 200 55 50 4 19 
11 115 95 118 159 89 69 94 145 65 23 3 42 73 112 44 60 38 80 74 116 81 84 114 144 60 144 86 131 81 53 172 50 39 152 36 65 10 139 105 30 144 254 71 123 64 68 57 62 69 115 80 19 15 147 158 136 78 70 180 103 185 102 175 74 44 139 36 89 62 55 147 60 106 44 64 105 130 121 120 103 215 111 177 48 162 57 148 113 146 127 58 87 144 72 44 79 26 69 89 12 68 123 62 68 99 108 102 98 105 109 8 91 21 16 
0 87 211 156 190 58 139 100 153 89 123 132 149 31 34 8 53 94 118 126 171 135 27 95 182 185 134 156 155 187 174 26 132 81 19 133 67 118 44 154 90 127 145 201 81 37 225 128 45 118 108 127 26 35 62 140 158 117 145 112 72 76 131 44 92 160 96 146 161 95 25 197 142 50 192 179 27 11 117 161 135 121 161 168 93 122 46 79 107 141 39 86 74 143 55 73 114 73 99 21 68 97 46 105 70 149 142 174 127 93 68 21 105 28 116 
9 84 187 193 190 45 105 173 94 150 103 129 129 24 120 71 52 93 78 77 121 129 91 81 21 55 52 60 42 83 57 108 147 107 48 145 83 128 75 141 186 124 81 230 40 114 92 187 105 93 51 146 59 54 30 119 124 111 60 129 63 110 158 128 130 164 86 181 82 105 39 58 17 110 147 107 41 29 144 161 116 155 126 142 170 144 150 31 59 84 139 116 113 126 40 61 87 146 41 75 101 61 129 122 79 121 184 160 111 66 0 70 47 76 84 
3 156 209 141 180 71 77 119 84 96 100 68 34 90 47 55 45 45 43 101 45 12 36 102 56 63 110 42 10 82 115 176 87 129 57 122 20 55 53 142 154 149 183 159 88 152 208 179 107 140 121 180 84 121 85 173 89 160 102 140 111 86 105 147 79 43 73 182 159 148 111 54 177 57 59 55 71 38 82 193 146 69 80 76 154 186 103 79 159 111 218 171 105 46 129 86 44 109 13 62 75 46 98 42 107 80 112 67 77 13 80 57 8 61 0 
0 215 121 153 114 107 146 88 142 145 80 121 123 78 154 117 105 105 59 86 124 164 72 113 119 138 83 38 82 57 188 123 169 174 105 41 135 160 40 172 196 102 85 155 123 96 62 70 69 169 157 103 190 152 115 182 114 73 150 106 87 141 110 53 58 26 77 156 115 179 156 59 200 26 60 19 53 161 118 203 101 98 190 148 121 161 145 126 149 88 158 130 72 92 126 92 58 9 78 84 29 90 82 54 79 99 124 125 85 24 36 21 53 12 35 
3 211 86 133 25 106 87 54 130 112 129 93 57 96 101 163 160 54 131 117 51 184 162 75 159 150 86 40 80 69 168 154 110 109 152 62 150 193 120 182 119 67 62 68 132 68 158 164 92 133 171 107 66 116 211 109 168 141 118 85 137 151 130 95 165 162 155 84 170 203 76 112 131 34 36 114 28 115 152 193 147 29 30 15 25 31 56 53 76 59 31 49 57 21 59 41 82 34 127 98 20 102 16 52 75 24 40 43 76 71 101 88 10 20 122 
12 116 95 109 142 141 87 136 109 172 72 51 61 86 155 111 114 68 157 138 127 113 152 149 137 83 207 124 108 52 154 129 137 153 157 123 190 144 104 53 77 127 155 140 98 177 119 118 190 161 105 207 165 168 108 167 176 112 164 204 221 189 60 166 34 216 198 135 68 107 161 54 34 52 68 48 80 24 144 194 98 9 59 64 48 81 59 35 53 90 102 41 76 76 113 68 113 57 106 56 0 58 55 25 67 5 40 55 123 32 7 44 81 131 136 
0 104 83 120 86 85 126 104 86 92 134 94 137 156 121 89 151 114 94 181 142 178 143 86 65 100 23 31 73 132 87 152 115 139 107 161 72 145 79 167 138 133 100 104 163 97 155 91 49 150 154 140 197 208 114 107 150 103 123 131 198 234 64 82 98 195 201 118 194 158 82 181 164 36 164 113 35 57 66 34 4 61 97 67 33 40 77 66 88 13 77 50 99 47 53 85 91 72 35 24 47 22 12 37 44 94 63 20 79 7 47 5 49 106 95 
4 94 128 99 81 133 123 162 69 70 94 133 82 63 93 159 137 166 162 170 111 142 56 110 51 115 41 91 71 145 151 177 99 97 107 155 154 70 107 137 41 37 66 115 121 145 40 160 98 177 177 110 96 172 108 200 142 130 236 107 123 148 130 49 63 165 191 169 89 131 108 239 153 47 140 180 156 55 103 64 12 37 142 97 104 128 122 63 145 106 64 79 60 101 40 95 143 7 84 151 94 31 94 86 113 28 22 58 54 34 22 69 5 51 99 
14 74 106 137 108 70 72 111 135 126 164 94 99 150 133 122 97 139 59 55 50 100 160 58 85 91 20 25 31 75 77 75 169 152 87 97 140 66 129 145 96 124 119 171 111 186 72 85 87 133 106 94 55 72 130 208 182 168 140 119 18 86 146 84 40 238 122 119 127 99 189 74 141 86 116 158 70 88 5 30 99 73 91 59 97 87 109 71 51 93 90 57 65 38 132 135 41 43 101 108 60 78 63 4 88 86 40 101 80 40 78 29 67 12 55 
10 93 151 96 101 62 71 123 63 166 84 135 65 72 152 139 146 116 104 30 51 102 116 103 139 93 53 127 65 118 138 114 93 98 150 120 92 138 139 99 118 72 159 108 148 38 43 140 66 162 108 159 93 65 140 119 159 94 160 181 9 88 177 75 14 243 130 129 153 185 50 104 173 74 63 177 168 40 48 14 82 132 82 99 58 47 87 68 180 59 72 41 69 92 98 90 47 48 129 128 104 20 92 71 82 3 36 73 101 71 161 15 15 50 1 
2 93 51 30 98 71 106 99 71 148 124 112 56 121 73 55 98 75 105 133 116 45 74 121 161 114 85 112 47 94 140 136 121 131 150 164 161 87 124 166 131 88 133 167 95 34 135 92 23 205 192 71 92 119 77 173 125 136 56 71 116 171 152 135 126 211 200 52 129 141 10 117 170 27 62 163 134 25 13 60 99 53 135 100 79 94 46 76 164 46 43 63 54 66 152 42 18 157 96 106 47 28 61 89 151 80 118 69 145 49 112 43 64 12 32 
0 63 70 82 40 62 44 84 117 77 93 150 152 58 127 105 190 194 156 176 197 111 122 89 146 107 171 100 114 152 81 127 174 85 66 100 53 106 76 131 75 53 121 231 20 30 122 149 26 214 173 144 75 107 75 150 134 122 26 20 55 129 166 39 76 222 104 158 55 127 42 86 104 7 7 7 227 223 122 20 19 160 116 66 49 26 55 32 208 28 59 109 89 78 120 43 91 63 80 102 117 71 19 47 61 9 53 54 104 82 101 130 40 27 52 
7 82 59 96 106 57 107 93 84 170 136 117 119 73 121 113 111 61 107 192 101 114 42 44 91 72 150 99 141 85 93 111 147 108 127 106 89 61 122 128 44 88 136 121 8 36 109 125 98 177 220 205 83 142 119 28 18 15 45 8 9 77 118 61 31 226 169 174 37 145 25 67 135 7 6 21 209 166 122 0 43 181 135 50 21 55 71 47 189 94 119 145 61 57 141 33 134 83 54 41 67 130 107 23 17 114 132 143 96 138 142 103 25 85 57 
31 74 161 122 65 111 68 82 118 101 87 60 121 92 55 119 176 123 76 108 196 79 95 94 139 152 99 80 108 102 134 103 162 92 121 93 150 138 52 90 142 99 132 104 75 85 37 136 105 213 177 210 60 80 172 85 76 84 97 115 90 119 133 64 15 219 214 192 41 136 40 18 12 38 24 21 177 24 8 57 30 187 166 18 38 60 40 44 185 108 151 115 83 74 99 70 105 44 54 125 109 28 63 63 108 143 84 105 140 81 49 36 39 75 8 
4 165 62 171 51 83 100 55 129 68 62 96 137 107 81 131 135 170 139 102 135 32 119 174 163 106 137 166 84 149 113 145 112 125 111 125 115 130 35 87 109 148 163 191 174 200 154 174 109 165 198 228 28 33 162 175 188 190 192 185 192 193 110 54 28 235 218 205 30 129 99 116 89 100 88 89 177 6 27 42 15 150 170 183 139 129 113 102 149 74 90 47 13 47 9 41 45 89 126 25 30 134 88 126 85 107 106 53 131 46 11 66 102 59 0 
1 95 156 100 11 95 60 106 30 76 127 119 83 79 99 157 167 104 159 147 117 192 0 11 130 196 65 53 41 99 119 124 104 78 102 138 3 44 99 44 126 158 100 147 125 151 124 112 150 187 138 221 38 64 90 34 40 131 199 148 54 17 49 44 21 229 206 212 55 121 188 190 199 176 183 176 149 25 55 15 40 156 70 112 91 67 13 18 26 21 82 91 146 31 38 8 56 73 131 71 7 44 94 6 106 88 47 78 33 5 51 85 53 54 4 
5 132 106 68 52 51 78 59 50 5 39 83 123 99 130 135 171 187 113 168 123 75 93 17 126 105 140 33 89 114 43 180 146 31 76 146 112 6 80 105 37 50 116 119 56 161 87 99 53 140 200 183 221 74 140 190 189 192 147 157 210 210 214 145 3 236 196 231 36 53 64 45 40 55 30 52 32 21 53 16 11 113 22 26 27 11 7 64 14 121 116 128 138 78 105 61 106 32 87 131 18 45 1 63 56 41 79 106 34 37 84 55 106 88 8 
15 122 36 49 79 49 25 51 57 19 17 40 162 110 126 79 59 123 160 133 163 122 59 95 105 137 163 131 105 182 122 113 45 18 23 102 166 43 63 132 69 52 134 92 108 138 58 69 6 196 200 205 210 30 117 172 197 192 194 196 193 186 155 127 0 246 218 230 12 58 164 140 150 145 101 152 30 14 40 0 31 93 197 105 85 78 74 69 86 37 43 97 36 25 20 120 16 9 20 93 108 38 6 95 3 104 97 50 7 62 97 62 104 78 3 
6 111 43 6 42 7 41 36 3 48 62 20 23 66 4 89 125 171 131 170 140 84 213 131 68 162 134 34 71 104 16 14 57 109 74 116 166 148 16 50 30 56 178 142 144 140 165 133 22 212 219 195 213 50 111 186 7 29 26 7 2 23 202 133 18 241 196 211 60 138 175 129 118 114 98 202 78 23 49 20 13 130 222 1 187 170 162 144 153 83 134 64 18 46 9 144 6 46 77 28 30 10 6 127 4 35 47 2 40 70 128 72 67 96 5 
13 156 13 0 18 34 14 51 11 81 58 1 52 0 14 44 114 47 98 174 197 105 32 6 136 155 35 105 124 73 12 36 150 145 167 44 121 96 8 52 66 16 169 28 37 24 95 55 21 203 209 197 221 40 128 208 4 10 9 30 53 9 191 126 7 240 209 219 37 98 121 18 19 8 3 205 22 18 54 16 15 100 210 4 9 0 2 2 38 88 46 60 92 17 113 35 95 6 7 96 0 62 2 107 0 35 2 32 46 66 113 68 92 66 0 
5 167 96 83 4 21 33 34 14 108 13 47 17 11 40 7 69 5 22 71 14 45 19 34 73 136 123 22 85 54 8 24 31 12 180 30 23 15 62 27 35 27 173 19 11 0 116 66 2 207 207 194 223 47 141 211 2 32 57 73 68 47 216 158 23 238 210 229 31 76 136 19 34 41 25 204 24 18 52 45 19 38 206 11 17 17 9 0 2 158 25 0 34 48 23 3 8 35 90 17 31 6 23 16 37 6 27 2 6 56 75 63 96 87 5 
2 56 25 8 26 5 28 21 7 65 16 0 40 1 9 5 48 45 0 19 42 129 146 95 146 131 117 43 134 52 22 29 6 1 188 20 14 22 43 43 45 26 173 14 17 15 117 61 12 197 203 198 217 45 142 203 6 16 48 29 22 16 213 170 23 230 213 221 28 67 154 13 19 30 19 188 40 18 39 18 7 15 193 63 87 69 54 59 0 123 20 47 0 24 103 79 95 132 117 51 16 124 112 100 3 11 42 15 0 22 7 29 76 45 1 
1 136 15 31 5 26 0 25 46 3 49 13 15 35 54 51 1 9 37 30 14 44 96 36 61 10 91 26 64 9 24 0 0 10 182 17 13 17 36 52 39 21 173 15 6 10 116 61 11 195 206 201 214 41 136 207 0 17 33 22 19 4 207 165 21 229 206 219 24 54 159 11 13 12 5 158 50 26 14 165 147 148 32 149 30 7 33 3 17 104 106 78 13 37 48 137 132 90 147 89 0 45 57 92 63 77 68 99 53 87 86 30 71 92 5 
0 157 52 2 38 0 16 70 44 78 12 35 7 58 81 119 60 100 49 14 52 3 109 6 42 30 0 94 44 0 4 1 0 2 183 13 34 33 23 47 40 20 174 16 5 2 112 62 11 192 206 200 212 40 135 209 2 11 14 5 8 0 211 170 18 223 211 218 26 53 161 43 60 51 114 38 135 162 68 38 130 128 130 116 82 22 99 123 147 158 70 134 96 118 122 132 162 117 121 133 48 30 157 90 151 152 168 23 104 135 143 35 24 96 39 
2 94 11 0 13 31 18 52 33 22 9 11 9 19 82 80 109 112 54 53 11 9 120 2 32 28 0 112 35 105 101 102 113 5 185 2 13 74 97 77 97 20 181 10 4 7 109 63 11 191 202 204 215 43 132 208 0 6 14 18 10 4 220 177 16 215 204 221 29 55 189 117 117 38 209 174 67 73 2 94 8 32 13 22 94 157 162 126 162 128 92 136 118 50 43 38 166 149 168 95 137 95 165 18 109 99 125 11 50 137 139 45 71 103 47 
3 105 67 127 98 22 98 97 110 95 117 125 81 76 135 113 66 34 41 16 147 165 139 13 0 6 2 30 4 20 0 1 21 94 149 82 106 119 164 189 194 205 25 144 156 142 161 59 9 186 210 205 213 42 130 213 0 7 12 24 8 2 219 172 19 208 212 224 28 58 154 43 13 37 104 30 79 132 144 130 19 83 178 88 124 168 155 199 164 130 44 22 174 105 30 100 178 168 174 160 73 27 41 101 153 172 157 103 41 85 60 15 65 97 20 
89 40 95 111 73 6 79 122 127 110 104 136 90 32 137 133 94 131 133 99 120 104 88 131 160 139 144 0 148 133 0 0 2 9 16 115 27 7 99 100 63 99 103 27 51 41 103 53 6 180 67 102 226 30 132 204 7 21 0 7 17 2 216 172 27 181 157 97 172 47 45 76 52 15 28 41 70 39 176 82 129 70 131 83 51 52 2 23 149 140 109 99 125 135 128 26 143 94 123 145 35 68 12 57 79 89 76 92 45 16 43 2 71 86 17 
10 0 60 54 5 40 125 131 129 49 32 114 29 25 113 108 82 133 140 153 48 4 57 26 140 153 124 23 126 135 115 138 162 151 25 88 27 66 71 17 102 48 26 41 62 53 15 76 17 166 90 95 225 34 138 205 0 0 13 20 4 5 214 165 40 197 190 149 87 136 86 62 59 73 145 181 137 103 73 57 169 186 118 60 30 10 59 75 101 43 37 20 63 57 48 92 55 56 75 69 20 27 44 14 47 28 41 13 21 70 42 0 82 86 8 
46 40 8 0 34 28 31 60 52 10 12 53 78 55 17 20 8 50 94 76 122 14 23 31 45 39 39 73 26 13 19 88 161 180 120 114 96 135 121 140 67 44 70 134 116 104 70 17 42 179 104 99 213 35 117 195 3 16 7 9 1 0 201 186 30 207 100 83 56 77 181 188 187 144 109 99 151 153 163 103 160 81 51 31 90 78 55 87 48 102 124 40 82 58 81 50 42 54 83 46 79 65 82 88 26 75 50 45 89 46 86 23 2 72 7 
0 64 22 55 48 93 97 38 69 49 52 25 40 32 2 10 47 17 23 61 38 77 96 55 75 36 93 58 81 52 47 10 54 16 34 13 159 121 147 123 171 149 148 163 150 158 166 124 49 95 30 78 212 115 122 213 0 12 0 36 52 6 185 147 51 48 87 71 180 174 133 79 161 23 84 20 69 43 65 30 96 153 76 135 144 112 128 60 64 65 61 113 75 92 53 95 140 55 64 91 55 84 48 80 28 106 84 95 32 92 58 11 17 86 10 
22 88 28 52 94 125 121 53 99 127 114 75 34 75 37 118 66 102 85 46 95 48 107 60 119 127 111 116 166 82 77 66 34 45 79 30 19 3 74 39 124 131 58 77 72 151 39 19 174 110 57 23 50 103 65 116 20 46 94 75 112 74 110 87 86 171 167 177 156 164 68 128 22 42 71 113 69 105 176 64 77 119 85 63 83 99 84 84 156 123 106 66 87 71 139 86 108 73 103 77 84 92 75 92 121 56 68 49 93 56 80 86 11 67 38 
2 106 51 61 34 46 72 32 56 53 50 69 33 69 43 61 95 57 29 59 87 97 57 93 74 81 46 65 100 60 93 50 141 103 55 71 114 16 124 124 31 87 34 52 96 144 46 53 179 147 180 129 67 126 82 49 103 139 143 159 152 96 157 159 188 100 83 31 44 50 148 50 155 146 77 179 145 71 129 102 89 149 174 157 174 158 194 191 189 172 195 208 169 181 154 150 116 130 140 161 153 162 138 159 168 136 149 116 65 95 75 115 44 15 80 
2 112 80 184 72 110 25 113 90 105 142 17 73 74 92 43 92 71 53 41 89 54 49 47 46 44 96 51 132 74 62 74 43 65 86 112 158 88 42 65 102 136 71 42 71 98 148 153 38 34 97 171 175 175 178 181 187 192 193 195 194 199 202 205 208 210 212 204 211 201 207 213 193 213 156 123 100 127 159 171 181 181 182 189 198 190 184 206 196 198 203 194 204 200 164 176 147 163 163 170 155 145 156 159 155 156 136 131 114 114 97 117 64 3 71 
99 138 87 73 109 100 77 48 101 48 113 47 103 161 64 94 97 125 94 111 62 131 138 106 62 134 115 83 46 53 76 120 51 80 124 62 6 112 70 141 71 158 142 139 125 158 0 0 146 157 0 1 0 0 0 4 0 1 0 2 1 0 0 0 0 0 0 0 0 5 0 0 0 8 0 0 4 0 2 0 0 1 0 1 2 0 5 1 0 2 0 0 0 0 1 0 0 0 6 0 5 0 2 3 0 5 5 0 0 0 9 0 77 14 67 
