P2
# Output after removing 20 vertical and 20 seams from bug.pgm
20 22
255
247 70 6 6 25 214 255 72 72 72 72 72 191 111 151 40 6 134 120 192 
205 247 175 102 118 70 175 255 134 255 255 230 102 15 6 46 151 255 110 192 
140 197 255 255 255 247 70 255 46 221 237 191 197 127 255 255 255 120 97 192 
72 255 191 230 197 247 255 255 177 46 197 191 85 46 191 255 255 120 97 192 
72 255 177 191 247 158 127 127 221 94 6 102 31 197 134 221 255 255 97 192 
255 230 62 177 111 127 151 36 6 175 6 151 237 79 118 134 158 255 120 192 
134 158 6 46 6 175 255 221 191 102 6 46 247 70 6 255 23 163 255 97 
255 205 6 111 151 6 6 6 6 6 6 6 23 163 6 6 6 134 255 120 
118 255 118 141 23 191 85 6 6 6 6 6 6 6 6 85 205 85 205 120 
255 118 247 102 6 85 255 163 134 85 85 85 134 163 230 255 163 23 247 255 
72 247 85 247 118 6 247 255 255 255 255 255 255 255 255 163 6 163 255 120 
72 255 151 62 255 6 46 175 255 255 255 255 255 205 85 6 102 255 255 120 
72 255 255 230 214 23 6 6 46 118 151 134 70 6 6 6 46 255 255 120 
72 255 247 102 255 191 15 102 6 6 6 6 6 102 191 23 6 205 255 120 
72 255 102 247 255 255 177 118 191 134 205 205 255 255 255 191 6 118 255 120 
72 255 175 255 255 230 255 230 221 134 255 255 255 255 205 85 6 102 255 110 
72 255 118 151 118 163 230 255 205 151 255 255 230 118 6 23 175 255 120 192 
72 255 118 230 255 255 247 177 255 6 46 118 6 6 151 247 255 255 97 192 
72 255 151 255 134 134 151 221 221 85 118 6 85 230 255 255 255 120 97 192 
72 255 102 134 247 255 255 247 118 247 255 255 255 255 255 255 255 255 110 192 
72 255 205 177 255 255 134 70 151 153 165 164 164 164 164 164 164 164 97 192 
255 221 102 70 151 255 255 151 50 6 40 72 72 72 72 72 72 72 72 97 
