P2
# Output after removing 1 vertical and 5 seams from excelTestCase.pgm
2 3
255
135 252 
192 53 
5 132 
