P2
# Output after removing 1 vertical and 0 seams from excelTestCase.pgm
2 8
255
30 120 
215 198 
135 4 
210 252 
192 53 
123 124 
5 132 
46 203 
